PathFileType	4	(X/Y/Z)	D:\Long Term Storage\D'Arcy Smith\Coord13.trc
DataRate	CameraRate	NumFrames	NumMarkers	Units	OrigDataRate	OrigDataStartFrame	OrigNumFrames
120.00	120.00	      97	4	mm	120.00	4196	      4795
Frame#	Time	M1			M2			M3			M4			
		X1	Y1	Z1	X2	Y2	Z2	X3	Y3	Z3	X4	Y4	Z4	

4196	34.958	988.82965	257.99539	559.73334	1660.35791	323.14844	291.24426							
4197	34.967	988.52325	256.89917	555.12079	1660.28088	318.72177	298.45502							
4198	34.975	988.41742	255.86472	550.33630	1660.12878	314.24121	305.78906							
4199	34.983	988.54541	255.03828	545.20789	1659.48035	309.85110	313.51489							
4200	34.992	988.41382	253.99101	539.44495	1659.12488	305.28253	321.59500							
4201	35.000	988.88751	252.93919	533.50299	1658.83606	300.63931	329.76190							
4202	35.008	988.95361	251.93401	526.85822	1658.45618	295.86295	337.70447							
4203	35.017	989.44257	250.80869	520.03143	1658.37317	291.43008	346.11584							
4204	35.025	990.08691	250.08627	513.12616	1657.93909	286.89267	355.24057							
4205	35.033	991.52277	248.75493	506.38815	1657.52979	282.43579	364.68951							
4206	35.042	992.26978	247.86211	498.26678	1657.02625	278.11667	374.62134							
4207	35.050	993.09802	247.61295	489.80899	1656.26038	273.89050	384.99139							
4208	35.058	994.73163	246.90927	481.55450	1655.76868	269.98126	395.86603							
4209	35.067	995.71008	246.63582	472.55392	1655.05310	266.39316	407.24219							
4210	35.075	997.49396	246.56194	463.78809	1654.19849	263.22333	419.16565							
4211	35.083	998.85669	246.64905	453.85406	1653.46362	260.39252	431.66107							
4212	35.092	1000.89203	246.88005	444.45154	1652.62500	258.12894	444.66519							
4213	35.100	1002.58618	247.67169	434.52179	1651.68396	256.52454	458.03687							
4214	35.108	1004.61945	248.35609	424.39828	1650.69238	255.38725	471.72946							
4215	35.117	1006.81726	249.45523	414.05435	1649.60242	255.13130	486.39682							
4216	35.125	1008.98505	250.93178	403.50241	1648.54248	255.16519	500.56607							
4217	35.133	1011.16675	252.50357	392.85974	1647.76147	255.86311	514.86877							
4218	35.142	1013.38190	254.50443	382.19238	1646.61401	257.05383	528.78687							
4219	35.150	1015.37018	257.01944	371.01135	1645.38770	258.39401	542.59271							
4220	35.158	1018.36176	259.17822	360.33405	1644.73376	260.57700	556.64850							
4221	35.167	1020.80811	261.87222	349.46487	1643.69360	263.35498	570.40112							
4222	35.175	1023.17346	265.61047	337.93771	1642.89282	265.94205	583.73120							
4223	35.183	1025.81421	269.03717	327.12247	1642.06519	269.12830	596.87012							
4224	35.192	1028.54150	272.55118	315.79077	1641.29590	272.82932	609.73938							
4225	35.200	1031.15393	276.62396	305.12283	1641.18298	277.27600	622.04205							
4226	35.208	1033.92725	280.93991	294.67972	1640.57422	281.72714	633.64697							
4227	35.217	1036.39832	285.43988	284.21994	1638.58984	285.47659	645.28931							
4228	35.225	1039.01770	290.30386	274.14825	1638.52551	291.14206	656.48053							
4229	35.233	1041.53259	295.17917	264.19681	1637.98389	296.58527	667.11414							
4230	35.242	1043.93774	300.33057	254.39131	1637.46667	302.24747	677.02277							
4231	35.250	1045.95764	305.82379	244.87708	1636.99646	308.12140	686.34961							
4232	35.258	1048.12769	311.13791	235.81285	1636.66748	314.06821	695.06342							
4233	35.267	1050.24146	316.73627	226.89836	1636.44763	320.11893	703.05902							
4234	35.275	1052.33545	322.18765	218.25992	1636.17944	326.18262	710.47589							
4235	35.283	1054.39539	327.77539	210.07387	1636.06262	332.37076	717.37231							
4236	35.292	1056.28638	333.28140	202.10791	1636.01111	337.57904	723.43512							
4237	35.300	1057.89453	338.54538	194.62288	1636.11060	343.06033	729.00940							
4238	35.308	1059.30615	344.09247	187.49863	1636.20215	348.10834	733.93402							
4239	35.317	1060.42578	348.98007	180.95769	1636.45959	352.75821	738.34808							
4240	35.325	1062.07056	354.16660	174.71747	1636.80725	357.06497	742.29559							
4241	35.333	1063.02905	358.84583	169.15388	1637.11743	360.85657	745.66840							
4242	35.342	1063.64600	362.95023	164.03902	1637.65088	364.70758	748.70972							
4243	35.350	1064.25623	367.11340	159.57317	1638.14551	367.34998	751.04181							
4244	35.358	1064.83459	370.83115	155.55400	1638.81860	369.87610	752.89673							
4245	35.367	1065.12122	374.27057	151.94617	1639.55713	371.31198	754.23822							
4246	35.375	1065.33704	377.14746	148.83003	1640.37695	373.23172	755.19836							
4247	35.383	1065.25037	379.71817	146.36404	1641.31470	373.83026	755.45911							
4248	35.392	1065.03723	381.83231	144.31343	1642.05444	373.59213	755.43146							
4249	35.400	1064.67920	383.39789	142.88000	1643.13953	373.36621	754.90161							
4250	35.408	1064.11145	384.61374	141.80310	1643.96008	372.58441	753.94562							
4251	35.417	1063.47644	385.34991	141.22691	1644.90234	371.53473	752.42596							
4252	35.425	1062.69666	385.62039	141.17644	1645.74451	369.67267	750.44989							
4253	35.433	1061.78943	385.37662	141.60164	1646.61584	367.63956	748.03424							
4254	35.442	1060.71252	384.74170	142.52606	1647.85645	364.89435	744.87152							
4255	35.450	1059.64563	383.62067	143.88879	1648.85400	361.81592	741.48236							
4256	35.458	1058.53540	382.21417	145.48358	1649.69556	358.66068	737.65985							
4257	35.467	1057.35413	380.57382	147.58199	1650.72632	354.56021	733.09918							
4258	35.475	1055.80859	378.04517	150.12715	1651.69055	350.36377	728.15344							
4259	35.483	1054.49524	375.43481	152.97784	1652.61304	345.84589	722.73871							
4260	35.492	1053.67493	372.74557	156.27727	1653.57349	341.16583	716.73590							
4261	35.500	1052.36414	369.51788	159.82005	1654.50757	336.18567	710.30261							
4262	35.508	1051.58936	365.61636	163.79234	1655.23816	331.09952	703.36121							
4263	35.517	1050.26233	361.83719	168.15002	1655.91528	325.74979	695.93079							
4264	35.525	1049.10559	357.88583	172.84377	1656.59888	320.53058	688.10938							
4265	35.533	1048.07410	353.59479	177.78119	1657.28235	315.36008	679.45612							
4266	35.542	1046.82874	349.15265	183.13896	1657.59924	309.78970	670.87030							
4267	35.550	1045.70325	344.54050	188.63162	1657.92542	304.62906	661.55920							
4268	35.558	1044.84546	339.83862	194.61002	1657.76453	299.14703	651.68561							
4269	35.567	1044.02063	334.92398	200.84137	1658.15662	294.33279	641.49542							
4270	35.575	1042.73352	329.84799	207.31834	1658.25806	289.67822	630.92627							
4271	35.583	1042.52588	325.13766	214.17108	1658.90820	286.05725	620.55212							
4272	35.592	1041.86035	320.19965	221.43408	1658.88220	282.03409	609.10760							
4273	35.600	1041.23169	315.47635	228.93584	1658.87964	278.42685	597.54004							
4274	35.608	1040.79126	310.71960	236.55792	1658.30176	274.86630	585.61292							
4275	35.617	1040.26990	306.07422	244.52629	1658.42444	272.27939	573.58215							
4276	35.625	1039.88782	301.52344	252.57198	1657.62085	269.49713	560.81573							
4277	35.633	1039.72034	297.01474	260.86957	1657.08838	267.29749	548.08289							
4278	35.642	1039.40625	292.72482	269.28311	1656.51648	265.69565	535.07526							
4279	35.650	1039.45874	288.34512	277.92896	1655.92297	264.28464	521.80066							
4280	35.658	1039.60730	284.12146	286.59717	1655.39612	263.40887	508.41116							
4281	35.667	1039.45508	279.95709	295.52896	1654.83691	263.02435	494.83948							
4282	35.675	1039.90869	276.24863	304.48447	1654.35583	263.02618	481.16931							
4283	35.683	1040.03369	272.67166	313.64240	1653.79590	263.35312	466.91556							
4284	35.692	1040.32373	269.37878	322.62842	1653.14844	264.13660	453.18155							
4285	35.700	1040.48926	266.36734	332.45941	1652.98267	265.83710	439.27286							
4286	35.708	1040.77222	263.44974	341.76892	1652.00183	267.30289	425.74081							
4287	35.717	1041.26648	260.73447	350.77841	1651.37024	269.45901	412.09760							
4288	35.725	1041.99854	257.51321	360.63196	1650.85022	272.11957	398.60986							
4289	35.733	1042.68481	255.09395	369.78043	1650.20117	275.07169	385.35123							
4290	35.742	1043.23669	252.79659	378.92731	1649.64929	278.48141	372.23804							
4291	35.750	1043.88037	251.06493	387.99881	1649.34094	282.20804	359.45691							
4292	35.758	1044.35437	249.04338	397.11816	1648.98718	286.30011	346.94818							
